<svg width="480" height="340" viewBox="0 0 480 340" fill="none" xmlns="http://www.w3.org/2000/svg">
<path d="M289.536 218.383L289.438 253.039L254.688 273.237L254.786 238.581L289.536 218.383Z" fill="#27096D"/>
<path d="M256.188 239.388L256.1 270.794L288.037 252.227L288.126 220.826L256.188 239.388ZM254.688 274.638C254.443 274.638 254.204 274.581 253.985 274.451C253.553 274.201 253.282 273.737 253.287 273.237L253.381 238.581C253.386 238.081 253.652 237.617 254.084 237.367L288.834 217.164C289.266 216.909 289.803 216.914 290.24 217.164C290.673 217.414 290.943 217.878 290.943 218.383L290.844 253.044C290.839 253.544 290.574 254.003 290.147 254.253L255.397 274.451C255.178 274.581 254.933 274.638 254.688 274.638Z" fill="#27096D"/>
<path d="M137.818 247.539L116.985 235.508C101.126 226.346 95.6778 217.487 95.6986 209.602L95.5997 244.258C95.5788 252.143 101.027 261.008 116.886 270.164L137.719 282.201C142.943 285.211 145.131 287.523 145.126 289.581L145.225 254.93C145.23 252.867 143.042 250.555 137.818 247.539Z" fill="#27096D"/>
<path d="M97.0733 219.622L97.0056 244.258C96.9796 252.742 103.907 261.049 117.584 268.951L138.422 280.977C140.688 282.289 142.443 283.497 143.735 284.659L143.818 254.924C143.823 253.878 142.662 251.956 137.12 248.758L116.282 236.727C106.865 231.284 100.438 225.56 97.0733 219.622ZM145.125 290.992H145.12C144.344 290.987 143.719 290.357 143.719 289.581C143.724 288.534 142.563 286.612 137.016 283.414L116.183 271.378C101.568 262.94 94.1723 253.815 94.1983 244.253L94.2921 209.596C94.2973 208.826 94.9275 208.195 95.6983 208.195H95.7035C96.4744 208.195 97.1046 208.831 97.1046 209.607C97.0785 218.086 104.006 226.393 117.688 234.289L138.521 246.326C144.136 249.565 146.631 252.221 146.625 254.93L146.526 289.586C146.526 290.362 145.896 290.992 145.125 290.992Z" fill="#27096D"/>
<path d="M190.886 282.976L183.292 287.393C140.495 312.263 107.673 303.445 84.7402 290.206C72.5632 283.169 63.4069 277.883 56.1986 273.513C54.5944 272.544 53.0892 271.622 51.6621 270.737C46.6882 267.622 42.7402 264.961 39.3184 262.357C32.4746 257.148 27.7246 252.174 21.0215 244.331L20.9277 278.982C36.2454 296.914 41.3444 299.851 84.6465 324.862C107.574 338.107 140.402 346.924 183.193 322.049L190.787 317.633C197.844 313.528 205.469 307.716 210.204 300.961C213.042 296.909 214.844 292.523 214.855 287.956L214.954 253.299C214.923 265.466 202.178 276.409 190.886 282.976Z" fill="#27096D"/>
<mask id="mask0_0_6" style="mask-type:luminance" maskUnits="userSpaceOnUse" x="19" y="242" width="198" height="98">
<path d="M19.4326 242.377H216.599V339.711H19.4326V242.377Z" fill="white"/>
</mask>
<g mask="url(#mask0_0_6)">
<path d="M22.3285 278.466C37.2295 295.851 42.042 298.638 85.3441 323.643C116.506 341.638 148.276 340.716 182.49 320.836L190.078 316.419C194.855 313.648 203.667 307.846 209.052 300.159C211.959 296.008 213.438 291.898 213.448 287.95L213.516 263.805C208.292 273.575 197.167 280.945 191.589 284.19L183.995 288.607C148.844 309.044 116.146 309.966 84.042 291.419C71.6358 284.252 62.6878 279.086 55.4691 274.716C53.8597 273.747 52.3493 272.815 50.9222 271.924C45.7816 268.716 41.8285 266.034 38.4691 263.476C32.3337 258.799 27.8233 254.263 22.417 248.091L22.3285 278.466ZM130.396 339.32C114.641 339.32 99.2295 334.903 83.9431 326.075C40.8701 301.2 35.3389 298.008 19.8597 279.898C19.641 279.643 19.5212 279.315 19.5212 278.982L19.6201 244.325C19.6201 243.737 19.9899 243.216 20.542 243.013C21.0889 242.805 21.7087 242.966 22.0889 243.414C28.5368 250.956 33.3285 256.034 40.167 261.242C43.4587 263.742 47.3493 266.383 52.4066 269.544C53.8233 270.424 55.3285 271.346 56.9222 272.315C64.1201 276.669 73.0524 281.831 85.417 288.971C116.605 306.982 148.381 306.065 182.584 286.174L190.183 281.763C195.651 278.581 213.511 267.122 213.547 253.294C213.552 252.523 214.177 251.898 214.953 251.898H214.959C215.73 251.898 216.36 252.528 216.355 253.299L216.261 287.956C216.245 292.492 214.594 297.143 211.355 301.768C205.657 309.898 196.464 315.961 191.49 318.851L183.901 323.258C165.48 333.971 147.735 339.32 130.396 339.32Z" fill="#27096D"/>
</g>
<path d="M201.521 205.143C189.027 197.93 183.917 195.518 174.256 201.138L171.725 202.607C168.193 204.659 165.798 206.445 165.792 208.607L165.693 243.263C165.704 241.101 168.1 239.31 171.626 237.263L174.157 235.789C183.818 230.174 188.928 232.586 201.423 239.805C216.709 248.633 241.485 263.737 254.688 273.237L254.787 238.581C241.584 229.081 216.808 213.976 201.521 205.143Z" fill="#27096D"/>
<path d="M183.813 231.31C189.172 231.31 194.386 234.123 202.125 238.591C215.287 246.195 239.063 260.565 253.292 270.524L253.381 239.3C239.485 229.383 214.448 214.237 200.818 206.362C188.334 199.149 183.953 197.123 174.959 202.346L172.427 203.82C169.844 205.32 167.198 207.065 167.198 208.612L167.11 238.555C168.23 237.654 169.568 236.831 170.917 236.05L173.453 234.576C177.339 232.31 180.605 231.31 183.813 231.31ZM254.688 274.638C254.401 274.638 254.11 274.55 253.87 274.378C240.11 264.477 214.547 249.008 200.724 241.018C188.23 233.81 183.855 231.779 174.86 237.003L172.334 238.471C169.745 239.977 167.105 241.727 167.099 243.274C167.094 244.044 166.464 244.669 165.693 244.669C164.917 244.664 164.287 244.034 164.292 243.263L164.391 208.602C164.396 205.503 167.667 203.341 171.016 201.393L173.552 199.925C183.943 193.878 189.849 196.784 202.224 203.93C216.094 211.94 241.756 227.477 255.605 237.44C255.974 237.706 256.193 238.128 256.193 238.586L256.094 273.242C256.094 273.768 255.797 274.248 255.328 274.492C255.125 274.591 254.907 274.638 254.688 274.638Z" fill="#27096D"/>
<path d="M244.766 183.013C268.152 196.518 280.777 207.56 289.537 218.383L254.787 238.581C241.584 229.081 216.808 213.977 201.521 205.143C189.027 197.93 183.917 195.518 174.256 201.138L171.725 202.607C164.594 206.748 162.089 209.836 174.584 217.05L196.355 229.623C231.542 249.946 209.292 272.279 190.886 282.977L183.292 287.393C140.495 312.263 107.673 303.446 84.7402 290.206C41.4434 265.201 36.3496 262.258 21.0215 244.331L55.7559 224.138C64.084 230.024 91.6725 247.81 113.199 260.242C123.167 265.998 129.391 266.659 136.298 262.649L139.964 260.513C146.646 256.633 148.011 253.425 137.818 247.539L116.985 235.508C72.9902 210.107 109.105 186.961 119.907 180.68L133.943 172.524C164.079 155.003 197.803 158.482 225.355 172.513C232.553 176.185 238.99 179.675 244.766 183.013Z" fill="white"/>
<mask id="mask1_0_6" style="mask-type:luminance" maskUnits="userSpaceOnUse" x="19" y="158" width="273" height="148">
<path d="M19.4326 158.377H291.266V305.044H19.4326V158.377Z" fill="white"/>
</mask>
<g mask="url(#mask1_0_6)">
<path d="M23.1879 244.695C37.5056 261.299 42.8858 264.414 85.4431 288.987C116.605 306.982 148.381 306.065 182.584 286.174L190.183 281.763C195.667 278.57 213.568 267.086 213.547 253.226C213.537 245.221 207.516 237.69 195.651 230.836L173.881 218.268C167.23 214.424 164.391 211.539 164.391 208.622C164.381 205.508 167.662 203.341 171.016 201.393L173.552 199.924C183.943 193.877 189.849 196.784 202.224 203.929C215.849 211.799 240.86 226.929 254.87 236.909L287.401 217.997C277.594 206.294 264.146 195.825 244.068 184.232C238.23 180.857 231.719 177.341 224.714 173.768C194.193 158.221 161.365 158.206 134.646 173.737L120.615 181.898C109.875 188.138 97.0837 198.018 97.1045 209.669C97.1149 218.127 104.042 226.409 117.688 234.289L138.521 246.325C144.12 249.56 146.62 252.206 146.625 254.914C146.631 257.862 143.62 260.013 140.672 261.732L137.006 263.857C129.61 268.159 122.969 267.508 112.5 261.456C90.6566 248.846 64.292 231.789 55.6879 225.799L23.1879 244.695ZM130.49 304.659C114.74 304.659 99.3233 300.247 84.042 291.419C40.9691 266.549 35.4379 263.346 19.9587 245.242C19.6879 244.924 19.5681 244.502 19.641 244.091C19.7087 243.679 19.9587 243.32 20.3181 243.117L55.0524 222.919C55.5264 222.643 56.1201 222.674 56.5681 222.987C64.2556 228.424 91.4587 246.065 113.901 259.028C123.464 264.554 129.141 265.179 135.589 261.435L139.256 259.299C142.328 257.513 143.823 256.081 143.818 254.919C143.818 253.867 142.657 251.95 137.12 248.758L116.282 236.726C101.709 228.31 94.3076 219.206 94.292 209.669C94.2764 199.393 102.891 188.945 119.198 179.466L133.235 171.31C160.792 155.284 194.605 155.268 225.99 171.263C233.037 174.857 239.589 178.403 245.474 181.799C266.584 193.987 280.511 205.002 290.625 217.497C290.886 217.815 290.99 218.226 290.917 218.633C290.844 219.039 290.599 219.388 290.24 219.596L255.495 239.794C255.011 240.07 254.417 240.044 253.969 239.721C240.203 229.815 214.641 214.346 200.818 206.362C188.334 199.148 183.953 197.122 174.959 202.346L172.427 203.82C169.839 205.325 167.193 207.07 167.198 208.617C167.198 209.778 168.599 211.976 175.287 215.836L197.058 228.409C209.849 235.794 216.344 244.143 216.355 253.221C216.381 268.169 199.042 279.857 191.589 284.19L183.995 288.607C165.578 299.31 147.828 304.659 130.49 304.659Z" fill="#27096D"/>
</g>
<path d="M298.645 296.112L268.181 279.589L266.879 239.416L297.343 255.939L298.645 296.112Z" fill="#27096D"/>
<path d="M295.967 256.79L268.36 241.818L269.56 278.741L297.163 293.711L295.967 256.79ZM265.645 238.752C265.761 238.537 265.925 238.353 266.144 238.222C266.569 237.96 267.105 237.942 267.543 238.183L298.01 254.702C298.447 254.943 298.729 255.397 298.744 255.896L300.051 296.071C300.07 296.573 299.811 297.043 299.384 297.309C298.959 297.571 298.422 297.59 297.977 297.35L267.509 280.825C267.071 280.583 266.794 280.132 266.776 279.637L265.474 239.465C265.463 239.211 265.529 238.968 265.645 238.752Z" fill="#27096D"/>
<path d="M344.929 148.713L365.401 136.078C380.988 126.46 391.371 125.865 398.304 129.623L367.84 113.1C360.907 109.342 350.519 109.935 334.937 119.555L314.46 132.188C309.332 135.359 306.259 136.188 304.45 135.208L334.91 151.729C336.723 152.711 339.796 151.882 344.929 148.713Z" fill="#27096D"/>
<path d="M388.83 126.081L367.173 114.338C359.716 110.292 349.117 112.45 335.675 120.744L315.204 133.387C312.974 134.759 311.078 135.731 309.443 136.318L335.581 150.493C336.5 150.994 338.743 150.883 344.187 147.521L364.662 134.88C373.919 129.171 382.007 126.228 388.83 126.081ZM303.208 134.538L303.21 134.534C303.583 133.853 304.434 133.602 305.117 133.97C306.036 134.471 308.279 134.36 313.725 130.993L334.202 118.36C348.562 109.495 360.103 107.311 368.509 111.869L398.975 128.388C399.652 128.758 399.908 129.611 399.542 130.29L399.54 130.295C399.174 130.973 398.316 131.227 397.632 130.859C390.18 126.815 379.581 128.973 366.141 137.274L345.664 149.908C340.149 153.314 336.627 154.251 334.245 152.962L303.781 136.439C303.098 136.071 302.842 135.217 303.208 134.538Z" fill="#27096D"/>
<path d="M288.562 178.627L288.275 169.847C286.677 120.375 310.006 95.6595 332.538 81.7491C344.508 74.3656 353.504 68.8117 360.77 64.5379C362.384 63.5851 363.909 62.6971 365.365 61.8606C370.466 58.9587 374.682 56.7452 378.597 54.9677C386.428 51.4126 393.06 49.5897 403.145 47.4082L372.683 30.8923C349.631 35.8734 344.627 38.9694 302.071 65.2307C279.538 79.1341 256.206 103.854 257.811 153.324L258.098 162.104C258.365 170.264 259.866 179.733 263.568 187.105C265.789 191.526 268.795 195.192 272.812 197.368L303.276 213.891C292.579 208.093 288.989 191.683 288.562 178.627Z" fill="#27096D"/>
<mask id="mask2_0_6" style="mask-type:luminance" maskUnits="userSpaceOnUse" x="226" y="0" width="180" height="221">
<path d="M405.618 46.9357L312.111 220.519L226.42 174.358L319.926 0.775031L405.618 46.9357Z" fill="white"/>
</mask>
<g mask="url(#mask2_0_6)">
<path d="M372.472 32.37C350.1 37.2436 345.364 40.159 302.814 66.4228C272.193 85.3229 257.937 113.731 259.213 153.28L259.503 162.056C259.677 167.575 260.606 178.085 264.82 186.472C267.096 190.999 270.012 194.25 273.483 196.132L294.709 207.643C288.584 198.41 287.372 185.12 287.161 178.67L286.874 169.89C285.551 129.251 300.247 100.027 331.801 80.5588C343.994 73.0353 352.786 67.608 360.057 63.325C361.673 62.3676 363.21 61.48 364.671 60.646C369.933 57.6418 374.17 55.4336 378.014 53.6888C385.042 50.5054 391.175 48.6859 399.172 46.8533L372.472 32.37ZM267.646 98.6513C275.118 84.7806 286.315 73.3071 301.337 64.0358C343.664 37.912 349.098 34.5565 372.382 29.5172C372.711 29.4457 373.056 29.4958 373.35 29.6539L403.814 46.1769C404.332 46.456 404.615 47.0286 404.532 47.6109C404.456 48.1912 404.02 48.6603 403.445 48.7826C393.748 50.8826 387.005 52.6928 379.176 56.2433C375.414 57.9556 371.244 60.1286 366.062 63.0816C364.616 63.9114 363.09 64.7994 361.481 65.7431C354.234 70.015 345.454 75.4311 333.304 82.9303C302.657 101.846 288.394 130.256 289.684 169.801L289.964 178.583C290.173 184.907 291.79 206.064 303.947 212.655C304.623 213.025 304.877 213.871 304.509 214.555L304.507 214.559C304.141 215.238 303.287 215.494 302.611 215.124L272.145 198.605C268.158 196.44 264.847 192.781 262.311 187.735C257.856 178.863 256.878 167.895 256.692 162.145L256.412 153.374C255.716 132.075 259.423 113.916 267.646 98.6513Z" fill="#27096D"/>
</g>
<path d="M352.042 224.903C364.319 217.324 368.865 213.969 368.499 202.798L368.407 199.873C368.275 195.791 367.838 192.835 365.938 191.805L335.474 175.282C337.372 176.316 337.813 179.275 337.942 183.35L338.04 186.278C338.401 197.446 333.855 200.801 321.574 208.378C306.552 217.649 281.504 232.298 266.879 239.417L297.343 255.94C311.968 248.821 337.016 234.172 352.042 224.903Z" fill="#27096D"/>
<path d="M337.403 196.903C334.862 201.621 329.913 204.877 322.308 209.572C309.372 217.553 285.445 231.67 269.93 239.474L297.377 254.36C312.697 246.83 337.905 231.971 351.303 223.706C363.574 216.136 367.435 213.24 367.102 202.844L367.005 199.916C366.909 196.931 366.628 193.774 365.266 193.04L338.947 178.762C339.209 180.175 339.299 181.744 339.347 183.302L339.441 186.234C339.593 190.729 338.925 194.078 337.403 196.903ZM265.645 238.752C265.781 238.5 265.997 238.285 266.262 238.156C281.505 230.737 307.247 215.568 320.836 207.187C333.108 199.606 336.971 196.717 336.638 186.321L336.543 183.4C336.445 180.408 336.157 177.253 334.797 176.515C334.121 176.145 333.87 175.293 334.235 174.615C334.608 173.934 335.462 173.678 336.138 174.048L366.607 190.574C369.332 192.048 369.684 195.953 369.811 199.825L369.901 202.754C370.297 214.77 364.937 218.591 352.777 226.097C339.147 234.509 313.299 249.733 297.959 257.2C297.55 257.4 297.075 257.392 296.671 257.175L266.207 240.652C265.744 240.403 265.463 239.914 265.47 239.385C265.479 239.159 265.541 238.945 265.645 238.752Z" fill="#27096D"/>
<path d="M351.016 273.471C328.036 287.654 312.327 293.532 298.644 296.112L297.342 255.94C311.968 248.821 337.015 234.172 352.042 224.903C364.318 217.324 368.864 213.969 368.499 202.798L368.406 199.873C368.142 191.632 366.611 187.962 354.335 195.541L332.941 208.745C298.361 230.086 289.251 199.905 288.562 178.627L288.275 169.847C286.677 120.375 310.006 95.6594 332.538 81.749C375.086 55.4897 380.092 52.4008 403.144 47.4081L404.449 87.5643C395.318 92.1051 366.575 107.958 345.421 121.014C335.626 127.061 332.092 132.226 332.348 140.209L332.489 144.449C332.736 152.173 334.913 154.896 344.928 148.713L365.401 136.078C408.628 109.392 411.878 152.163 412.285 164.652L412.809 180.878C413.942 215.718 394.886 243.758 369.466 261.361C362.82 265.956 356.695 269.969 351.016 273.471Z" fill="white"/>
<mask id="mask3_0_6" style="mask-type:luminance" maskUnits="userSpaceOnUse" x="230" y="16" width="250" height="310">
<path d="M479.57 85.7729L350.653 325.092L230.977 253.071L350.447 16.2158L479.57 85.7729Z" fill="white"/>
</mask>
<g mask="url(#mask3_0_6)">
<path d="M401.773 47.3545C380.364 52.085 375.071 55.3446 333.254 81.1578C302.633 100.058 288.37 128.468 289.661 168.013L289.941 176.795C290.151 183.138 291.772 204.344 303.983 210.899C311.036 214.686 320.522 212.957 332.183 205.762L353.572 192.556C360.111 188.523 363.997 187.393 366.565 188.776C369.312 190.244 369.663 194.16 369.788 198.037L369.878 200.966C370.273 212.982 364.914 216.803 352.754 224.309C339.364 232.572 314.182 247.416 298.752 255.018L299.973 292.627C314.928 289.543 330.522 282.668 350.251 270.49C355.991 266.95 362.174 262.886 368.642 258.413C396.804 238.916 412.386 210.022 411.384 179.133L410.853 162.91C410.453 150.496 407.821 134.548 397.554 129.041C390.103 125.039 379.527 127.21 366.117 135.486L345.64 148.12C340.138 151.515 336.623 152.461 334.236 151.181C331.638 149.788 331.172 146.117 331.057 142.707L330.925 138.471C330.645 129.919 334.367 124.382 344.66 118.036C366.121 104.785 393.642 89.6629 402.995 84.9285L401.773 47.3545ZM298.093 113.384C305.563 99.518 316.758 88.0375 331.777 78.7708C374.1 52.6445 379.543 49.2939 402.823 44.2522C403.231 44.1644 403.659 44.259 403.987 44.5184C404.317 44.7731 404.515 45.1637 404.523 45.5764L405.832 85.7351C405.851 86.2832 405.541 86.7911 405.054 87.0373C396.621 91.2265 368.189 106.81 346.133 120.42C336.733 126.218 333.49 130.92 333.729 138.372L333.87 142.613C333.985 146.166 334.537 148.161 335.562 148.707C336.489 149.206 338.727 149.093 344.163 145.733L364.638 133.092C378.96 124.254 390.485 122.056 398.888 126.565C407.942 131.425 413.055 143.964 413.667 162.816L414.19 179.042C415.23 210.903 399.209 240.679 370.242 260.725C363.736 265.224 357.506 269.311 351.726 272.881C330.985 285.686 314.682 292.723 298.884 295.702C298.481 295.781 298.07 295.677 297.747 295.42C297.423 295.164 297.232 294.783 297.219 294.367L295.915 254.2C295.902 253.642 296.206 253.132 296.703 252.891C311.953 245.47 337.694 230.301 351.279 221.918C363.551 214.348 367.412 211.452 367.079 201.056L366.981 198.128C366.884 195.136 366.603 191.979 365.238 191.25C364.216 190.699 361.616 190.89 355.047 194.947L333.653 208.151C321.084 215.91 310.654 217.669 302.657 213.373C289.484 206.307 287.418 185.499 287.137 176.882L286.85 168.102C286.162 146.812 289.87 128.649 298.093 113.384Z" fill="#27096D"/>
</g>
<path d="M423.762 179.743C423.902 178.993 423.842 178.373 423.582 177.883C423.322 177.393 422.952 177.023 422.472 176.773C422.232 176.663 421.967 176.573 421.677 176.503C421.397 176.433 421.107 176.393 420.807 176.383C420.517 176.363 420.227 176.373 419.937 176.413C419.647 176.443 419.382 176.508 419.142 176.608C418.662 176.808 418.252 177.113 417.912 177.523C417.582 177.933 417.357 178.388 417.237 178.888C417.117 179.388 417.122 179.903 417.252 180.433C417.392 180.963 417.692 181.448 418.152 181.888C418.292 182.008 418.447 182.113 418.617 182.203C418.787 182.293 418.972 182.358 419.172 182.398C419.382 182.438 419.607 182.483 419.847 182.533C420.087 182.573 420.307 182.638 420.507 182.728C420.717 182.818 420.897 182.938 421.047 183.088C421.197 183.228 421.287 183.418 421.317 183.658C421.377 184.008 421.307 184.268 421.107 184.438C420.917 184.608 420.687 184.698 420.417 184.708C420.157 184.708 419.907 184.628 419.667 184.468C419.437 184.308 419.312 184.068 419.292 183.748C418.952 183.758 418.572 183.753 418.152 183.733C417.732 183.703 417.347 183.713 416.997 183.763V183.808V183.853C416.967 184.333 417.052 184.763 417.252 185.143C417.452 185.513 417.722 185.828 418.062 186.088C418.402 186.348 418.787 186.553 419.217 186.703C419.657 186.843 420.097 186.918 420.537 186.928C420.847 186.938 421.147 186.913 421.437 186.853C421.737 186.783 422.012 186.678 422.262 186.538C422.522 186.398 422.752 186.218 422.952 185.998C423.152 185.778 423.312 185.513 423.432 185.203C423.552 184.943 423.637 184.673 423.687 184.393C423.747 184.103 423.767 183.818 423.747 183.538C423.737 183.258 423.687 182.988 423.597 182.728C423.507 182.458 423.372 182.208 423.192 181.978C422.902 181.548 422.527 181.193 422.067 180.913C421.617 180.633 421.127 180.463 420.597 180.403C420.387 180.373 420.192 180.318 420.012 180.238C419.832 180.158 419.702 179.998 419.622 179.758C419.612 179.688 419.602 179.623 419.592 179.563C419.592 179.493 419.602 179.423 419.622 179.353C419.662 179.073 419.792 178.883 420.012 178.783C420.242 178.683 420.477 178.658 420.717 178.708C420.957 178.758 421.162 178.873 421.332 179.053C421.502 179.233 421.557 179.458 421.497 179.728C421.847 179.828 422.222 179.873 422.622 179.863C423.022 179.843 423.397 179.803 423.747 179.743H423.762ZM422.247 195.588C422.207 195.418 422.152 195.188 422.082 194.898C422.012 194.608 421.937 194.288 421.857 193.938C421.777 193.588 421.692 193.223 421.602 192.843C421.522 192.463 421.442 192.108 421.362 191.778C421.292 191.438 421.222 191.138 421.152 190.878C421.092 190.608 421.047 190.408 421.017 190.278C420.687 190.308 420.417 190.328 420.207 190.338C420.007 190.338 419.842 190.338 419.712 190.338C419.582 190.338 419.477 190.338 419.397 190.338C419.317 190.338 419.242 190.343 419.172 190.353C418.932 191.153 418.712 191.958 418.512 192.768C418.312 193.578 418.127 194.358 417.957 195.108C417.787 195.858 417.637 196.568 417.507 197.238C417.387 197.898 417.282 198.483 417.192 198.993C417.102 199.503 417.032 199.918 416.982 200.238C416.932 200.558 416.897 200.753 416.877 200.823C416.887 200.833 416.897 200.838 416.907 200.838C417.587 200.828 418.087 200.833 418.407 200.853C418.727 200.873 418.927 200.873 419.007 200.853C419.017 200.853 419.022 200.853 419.022 200.853C419.032 200.843 419.042 200.838 419.052 200.838C419.142 200.668 419.212 200.473 419.262 200.253C419.312 200.033 419.357 199.808 419.397 199.578C419.447 199.338 419.492 199.113 419.532 198.903C419.582 198.683 419.642 198.493 419.712 198.333C419.822 198.333 419.907 198.333 419.967 198.333C420.037 198.323 420.097 198.318 420.147 198.318C420.207 198.318 420.272 198.318 420.342 198.318C420.412 198.318 420.512 198.328 420.642 198.348C420.712 198.498 420.777 198.678 420.837 198.888C420.897 199.098 420.952 199.318 421.002 199.548C421.062 199.778 421.117 200.003 421.167 200.223C421.227 200.443 421.287 200.633 421.347 200.793H421.362C421.682 200.863 422.022 200.903 422.382 200.913C422.742 200.933 423.072 200.913 423.372 200.853V200.838L422.247 195.588ZM420.717 196.563C420.527 196.563 420.337 196.568 420.147 196.578C419.957 196.578 419.777 196.573 419.607 196.563C419.677 196.053 419.737 195.578 419.787 195.138C419.847 194.698 419.897 194.333 419.937 194.043C419.987 193.753 420.037 193.563 420.087 193.473C420.147 193.373 420.202 193.408 420.252 193.578C420.312 193.748 420.377 194.073 420.447 194.553C420.527 195.033 420.617 195.703 420.717 196.563ZM420.462 209.633C420.442 209.643 420.432 209.648 420.432 209.648C420.422 209.648 420.417 209.653 420.417 209.663V209.678C420.437 209.858 420.447 210.008 420.447 210.128C420.447 210.248 420.442 210.368 420.432 210.488C420.432 210.598 420.432 210.713 420.432 210.833C420.442 210.953 420.457 211.093 420.477 211.253C420.527 211.273 420.597 211.288 420.687 211.298C420.787 211.298 420.892 211.298 421.002 211.298C421.122 211.288 421.232 211.283 421.332 211.283C421.442 211.273 421.527 211.273 421.587 211.283C421.617 211.293 421.632 211.338 421.632 211.418C421.642 211.498 421.642 211.588 421.632 211.688C421.632 211.788 421.622 211.888 421.602 211.988C421.592 212.078 421.582 212.143 421.572 212.183C421.532 212.323 421.472 212.438 421.392 212.528C421.312 212.608 421.217 212.673 421.107 212.723C420.967 212.773 420.812 212.813 420.642 212.843C420.482 212.873 420.327 212.878 420.177 212.858C420.037 212.828 419.922 212.783 419.832 212.723C419.642 212.573 419.517 212.368 419.457 212.108C419.397 211.848 419.357 211.608 419.337 211.388C419.307 211.018 419.287 210.628 419.277 210.218C419.267 209.808 419.272 209.413 419.292 209.033C419.312 208.643 419.342 208.278 419.382 207.938C419.432 207.598 419.492 207.308 419.562 207.068C419.582 206.988 419.607 206.908 419.637 206.828C419.677 206.738 419.707 206.683 419.727 206.663C419.847 206.543 419.987 206.483 420.147 206.483C420.307 206.483 420.472 206.488 420.642 206.498C420.792 206.498 420.922 206.548 421.032 206.648C421.142 206.738 421.237 206.848 421.317 206.978C421.407 207.098 421.477 207.233 421.527 207.383C421.587 207.523 421.632 207.643 421.662 207.743C421.812 207.763 421.942 207.778 422.052 207.788C422.162 207.798 422.267 207.803 422.367 207.803C422.477 207.803 422.582 207.803 422.682 207.803C422.792 207.793 422.922 207.788 423.072 207.788C423.232 207.778 423.347 207.773 423.417 207.773C423.487 207.773 423.532 207.758 423.552 207.728L423.567 207.638C423.637 207.028 423.582 206.503 423.402 206.063C423.222 205.613 422.952 205.253 422.592 204.983C422.232 204.713 421.802 204.528 421.302 204.428C420.802 204.318 420.277 204.298 419.727 204.368C419.457 204.408 419.197 204.468 418.947 204.548C418.697 204.628 418.472 204.753 418.272 204.923C417.982 205.123 417.772 205.378 417.642 205.688C417.522 205.998 417.437 206.318 417.387 206.648C417.337 206.968 417.302 207.298 417.282 207.638C417.262 207.968 417.247 208.293 417.237 208.613C417.227 208.983 417.222 209.313 417.222 209.603C417.232 209.883 417.242 210.153 417.252 210.413C417.272 210.663 417.292 210.918 417.312 211.178C417.332 211.438 417.357 211.728 417.387 212.048C417.407 212.248 417.432 212.448 417.462 212.648C417.502 212.838 417.537 212.988 417.567 213.098C417.687 213.528 417.852 213.888 418.062 214.178C418.272 214.468 418.577 214.698 418.977 214.868C419.217 214.968 419.467 215.033 419.727 215.063C419.997 215.093 420.272 215.093 420.552 215.063C420.832 215.043 421.107 215.003 421.377 214.943C421.647 214.893 421.907 214.833 422.157 214.763C422.537 214.623 422.857 214.418 423.117 214.148C423.377 213.878 423.532 213.488 423.582 212.978C423.682 212.438 423.722 211.873 423.702 211.283C423.682 210.683 423.642 210.118 423.582 209.588L423.567 209.573H423.537C423.437 209.573 423.242 209.563 422.952 209.543C422.672 209.513 422.367 209.493 422.037 209.483C421.707 209.473 421.392 209.478 421.092 209.498C420.802 209.508 420.592 209.553 420.462 209.633ZM422.247 223.588C422.207 223.418 422.152 223.188 422.082 222.898C422.012 222.608 421.937 222.288 421.857 221.938C421.777 221.588 421.692 221.223 421.602 220.843C421.522 220.463 421.442 220.108 421.362 219.778C421.292 219.438 421.222 219.138 421.152 218.878C421.092 218.608 421.047 218.408 421.017 218.278C420.687 218.308 420.417 218.328 420.207 218.338C420.007 218.338 419.842 218.338 419.712 218.338C419.582 218.338 419.477 218.338 419.397 218.338C419.317 218.338 419.242 218.343 419.172 218.353C418.932 219.153 418.712 219.958 418.512 220.768C418.312 221.578 418.127 222.358 417.957 223.108C417.787 223.858 417.637 224.568 417.507 225.238C417.387 225.898 417.282 226.483 417.192 226.993C417.102 227.503 417.032 227.918 416.982 228.238C416.932 228.558 416.897 228.753 416.877 228.823C416.887 228.833 416.897 228.838 416.907 228.838C417.587 228.828 418.087 228.833 418.407 228.853C418.727 228.873 418.927 228.873 419.007 228.853C419.017 228.853 419.022 228.853 419.022 228.853C419.032 228.843 419.042 228.838 419.052 228.838C419.142 228.668 419.212 228.473 419.262 228.253C419.312 228.033 419.357 227.808 419.397 227.578C419.447 227.338 419.492 227.113 419.532 226.903C419.582 226.683 419.642 226.493 419.712 226.333C419.822 226.333 419.907 226.333 419.967 226.333C420.037 226.323 420.097 226.318 420.147 226.318C420.207 226.318 420.272 226.318 420.342 226.318C420.412 226.318 420.512 226.328 420.642 226.348C420.712 226.498 420.777 226.678 420.837 226.888C420.897 227.098 420.952 227.318 421.002 227.548C421.062 227.778 421.117 228.003 421.167 228.223C421.227 228.443 421.287 228.633 421.347 228.793H421.362C421.682 228.863 422.022 228.903 422.382 228.913C422.742 228.933 423.072 228.913 423.372 228.853V228.838L422.247 223.588ZM420.717 224.563C420.527 224.563 420.337 224.568 420.147 224.578C419.957 224.578 419.777 224.573 419.607 224.563C419.677 224.053 419.737 223.578 419.787 223.138C419.847 222.698 419.897 222.333 419.937 222.043C419.987 221.753 420.037 221.563 420.087 221.473C420.147 221.373 420.202 221.408 420.252 221.578C420.312 221.748 420.377 222.073 420.447 222.553C420.527 223.033 420.617 223.703 420.717 224.563Z" fill="#27096D"/>
<path d="M423.833 117.179C422.133 118.282 413.433 131.711 413.433 133.114C413.433 133.916 414.733 134.417 416.433 134.417H419.433V153.458C419.433 163.881 419.833 172.5 420.233 172.5C421.133 172.5 422.033 153.959 421.933 139.428C421.933 132.412 421.733 131.911 419.733 131.611C418.433 131.41 417.433 131.11 417.433 130.809C417.433 129.907 424.633 120.386 425.433 120.386C425.833 120.386 427.833 122.791 429.833 125.598C433.333 130.609 433.433 130.909 431.433 131.41C429.333 131.911 429.333 132.012 429.133 190.439C428.933 236.54 429.233 249.067 430.233 249.368C431.133 249.769 431.433 237.843 431.433 192.143V134.417H434.433C436.133 134.417 437.433 133.916 437.433 133.415C437.433 131.21 427.033 116.377 425.633 116.377C425.233 116.377 424.433 116.778 423.833 117.179Z" fill="#27096D"/>
<path d="M33.4826 212.156C33.18 211.455 32.784 210.975 32.2947 210.713C31.8054 210.452 31.2919 210.352 30.7541 210.412C30.4936 210.455 30.2235 210.528 29.9438 210.632C29.6724 210.73 29.4095 210.859 29.1551 211.018C28.9033 211.164 28.6683 211.334 28.4501 211.529C28.2262 211.716 28.0427 211.918 27.8994 212.135C27.6129 212.569 27.4431 213.051 27.3899 213.581C27.3451 214.105 27.4125 214.608 27.5921 215.09C27.7717 215.572 28.0634 215.996 28.4672 216.363C28.8793 216.725 29.399 216.96 30.0263 217.068C30.2094 217.089 30.3966 217.09 30.5879 217.069C30.7792 217.049 30.969 217 31.1572 216.921C31.3538 216.837 31.5656 216.749 31.7926 216.656C32.014 216.556 32.2328 216.487 32.449 216.45C32.6735 216.407 32.8898 216.406 33.098 216.447C33.3006 216.479 33.4814 216.587 33.6403 216.769C33.8855 217.026 33.9726 217.281 33.9016 217.533C33.8389 217.78 33.6983 217.983 33.4799 218.142C33.2642 218.288 33.0121 218.361 32.7237 218.362C32.4436 218.358 32.2058 218.229 32.0106 217.974C31.7341 218.172 31.4161 218.38 31.0565 218.598C30.6913 218.808 30.3775 219.031 30.115 219.268L30.1402 219.305L30.1653 219.343C30.4084 219.758 30.719 220.067 31.0971 220.271C31.4696 220.466 31.8695 220.576 32.2968 220.602C32.724 220.628 33.1578 220.583 33.5983 220.468C34.0415 220.338 34.4484 220.155 34.819 219.917C35.0818 219.752 35.3167 219.564 35.5238 219.352C35.7336 219.127 35.9031 218.886 36.0323 218.63C36.1698 218.369 36.2601 218.091 36.3032 217.797C36.3463 217.503 36.3311 217.194 36.2575 216.87C36.2119 216.587 36.1317 216.316 36.0168 216.055C35.9046 215.781 35.7621 215.534 35.5892 215.313C35.4245 215.086 35.2323 214.89 35.0125 214.724C34.787 214.551 34.5354 214.419 34.2577 214.328C33.777 214.133 33.2677 214.048 32.7297 214.073C32.2001 214.092 31.6987 214.224 31.2255 214.471C31.0345 214.563 30.842 214.626 30.648 214.66C30.454 214.694 30.2568 214.634 30.0565 214.48C30.0091 214.427 29.9645 214.379 29.9227 214.335C29.8836 214.277 29.8528 214.213 29.8303 214.144C29.7072 213.889 29.7089 213.659 29.8356 213.453C29.9706 213.242 30.1516 213.09 30.3786 212.997C30.6056 212.905 30.8399 212.886 31.0814 212.94C31.323 212.995 31.4942 213.151 31.5952 213.408C31.9414 213.296 32.2776 213.124 32.6039 212.892C32.9246 212.652 33.2133 212.409 33.4702 212.164L33.4826 212.156ZM37.2856 205.6C36.3697 206.084 35.4624 206.635 34.5637 207.251C33.6677 207.854 32.7994 208.445 31.9588 209.023C31.9644 209.031 31.9672 209.035 31.9672 209.035C31.9755 209.03 31.9825 209.031 31.988 209.039C32.1055 209.25 32.2368 209.463 32.3819 209.678C32.5271 209.894 32.6639 210.097 32.7923 210.288C32.9235 210.465 33.0378 210.617 33.1355 210.744C33.2414 210.866 33.3138 210.937 33.3528 210.959C33.4137 210.943 33.5064 210.892 33.6308 210.808C33.7553 210.725 33.895 210.637 34.0499 210.545C34.1992 210.444 34.3541 210.352 34.5146 210.268C34.6695 210.176 34.8135 210.121 34.9465 210.104L34.9674 210.108C35.7988 211.236 36.4951 212.208 37.0562 213.023C37.6256 213.833 38.0848 214.507 38.4339 215.043C38.7856 215.566 39.0467 215.963 39.2171 216.234C39.3875 216.505 39.488 216.654 39.5186 216.682C39.6512 216.556 39.8046 216.435 39.9788 216.318C40.153 216.201 40.3272 216.083 40.5014 215.966C40.6839 215.843 40.8623 215.723 41.0365 215.606C41.2134 215.475 41.3682 215.346 41.5008 215.221L41.4924 215.209L41.484 215.196C40.8588 214.303 40.3187 213.528 39.8637 212.869C39.4032 212.203 39.0096 211.636 38.683 211.169C38.3509 210.693 38.0801 210.309 37.8708 210.016C37.6642 209.709 37.4995 209.464 37.3767 209.282C37.2483 209.091 37.1561 208.954 37.1003 208.871C37.0472 208.774 37.0108 208.702 36.9912 208.655C36.9856 208.647 36.9828 208.643 36.9828 208.643C36.9855 208.629 36.9841 208.618 36.9785 208.61L36.9909 208.601L37.0158 208.584C37.3946 208.305 37.6973 208.084 37.924 207.919C38.1507 207.754 38.354 207.636 38.534 207.563C38.3745 207.236 38.1746 206.894 37.9345 206.538C37.7027 206.175 37.4864 205.863 37.2856 205.6ZM44.2538 207.13C44.1257 207.011 43.9516 206.851 43.7316 206.65C43.5116 206.448 43.2707 206.225 43.0089 205.979C42.7471 205.733 42.4728 205.478 42.186 205.213C41.9074 204.943 41.6428 204.693 41.3922 204.464C41.1443 204.221 40.9187 204.011 40.7155 203.834C40.5149 203.644 40.3659 203.503 40.2685 203.412C40.0114 203.621 39.7986 203.788 39.63 203.914C39.4641 204.026 39.3272 204.118 39.2193 204.19C39.1115 204.263 39.0244 204.321 38.958 204.366C38.8917 204.411 38.8322 204.457 38.7797 204.504C39.0273 205.302 39.2943 206.093 39.5807 206.876C39.867 207.66 40.1491 208.41 40.4268 209.127C40.7045 209.844 40.9765 210.517 41.2428 211.146C41.5118 211.76 41.7513 212.304 41.9614 212.777C42.1715 213.251 42.3452 213.634 42.4824 213.928C42.6196 214.221 42.6994 214.402 42.7219 214.472C42.7358 214.474 42.7469 214.473 42.7552 214.467C43.3137 214.079 43.7313 213.804 44.0079 213.642C44.2846 213.48 44.4505 213.368 44.5057 213.307C44.514 213.302 44.5181 213.299 44.5181 213.299C44.5208 213.285 44.5263 213.275 44.5346 213.27C44.5144 213.078 44.4636 212.877 44.3822 212.667C44.3008 212.457 44.2125 212.245 44.1173 212.032C44.0248 211.805 43.9365 211.593 43.8524 211.396C43.771 211.186 43.7147 210.995 43.6835 210.823C43.7747 210.761 43.8452 210.714 43.895 210.681C43.9475 210.633 43.9945 210.595 44.036 210.568C44.0857 210.534 44.1397 210.498 44.1977 210.459C44.2558 210.42 44.3444 210.372 44.4634 210.316C44.6052 210.401 44.7596 210.514 44.9267 210.655C45.0937 210.796 45.2622 210.948 45.4321 211.111C45.6103 211.268 45.7815 211.424 45.9458 211.578C46.1185 211.727 46.2743 211.852 46.4134 211.951L46.4259 211.942C46.7304 211.822 47.0348 211.665 47.3391 211.472C47.6489 211.288 47.9115 211.087 48.1269 210.87L48.1185 210.857L44.2538 207.13ZM43.5289 208.793C43.3713 208.899 43.2165 209.01 43.0644 209.124C42.9068 209.23 42.7547 209.327 42.6081 209.413C42.3814 208.951 42.1659 208.523 41.9617 208.13C41.7658 207.732 41.6035 207.401 41.4747 207.138C41.3543 206.87 41.2897 206.684 41.2809 206.582C41.2749 206.465 41.34 206.464 41.4764 206.577C41.6211 206.684 41.8565 206.917 42.1826 207.277C42.517 207.63 42.9658 208.136 43.5289 208.793ZM54.4804 206.539C54.1271 206.283 53.753 206.059 53.3583 205.866C52.9581 205.665 52.5551 205.479 52.1494 205.306C51.7437 205.133 51.3366 204.967 50.9282 204.808C50.5142 204.64 50.1168 204.462 49.736 204.272L49.7276 204.26L49.7401 204.251L49.7899 204.218C50.1713 203.925 50.4236 203.592 50.5468 203.22C50.6783 202.842 50.7223 202.451 50.6789 202.046C50.6457 201.442 50.4673 200.917 50.1436 200.472C49.8226 200.013 49.4259 199.665 48.9533 199.429C48.4808 199.192 47.963 199.077 47.4 199.082C46.837 199.087 46.3024 199.242 45.7962 199.547C45.1459 199.888 44.5624 200.275 44.0456 200.707C43.5289 201.139 43.0606 201.545 42.6407 201.924C42.7299 202.02 42.8819 202.219 43.0968 202.521C43.3144 202.808 43.5725 203.165 43.8712 203.591C44.1642 204.008 44.488 204.471 44.8425 204.98C45.1997 205.475 45.5541 205.984 45.9059 206.506C46.2604 207.015 46.6024 207.514 46.9318 208.004C47.2556 208.485 47.5432 208.912 47.7945 209.285C48.0457 209.659 48.2454 209.964 48.3934 210.202C48.5359 210.432 48.5988 210.552 48.5822 210.563C48.6181 210.527 48.726 210.455 48.9058 210.346C49.0939 210.231 49.2971 210.094 49.5155 209.935C49.7395 209.784 49.9579 209.625 50.1708 209.458C50.3919 209.285 50.5534 209.122 50.6554 208.969C50.541 208.817 50.3861 208.614 50.1909 208.36C49.9956 208.105 49.792 207.839 49.5799 207.559C49.3706 207.266 49.1738 206.983 48.9896 206.709C48.7997 206.427 48.6531 206.182 48.5495 205.975L48.5995 205.995C48.9189 206.094 49.2606 206.225 49.6247 206.39C49.9888 206.555 50.3432 206.732 50.6879 206.922C51.0327 207.112 51.3566 207.298 51.6597 207.479C51.9628 207.661 52.2201 207.82 52.4315 207.955L52.4439 207.946C52.834 207.72 53.2018 207.478 53.5474 207.222C53.8873 206.957 54.2025 206.726 54.4929 206.531L54.4804 206.539ZM45.6301 202.443C45.8422 202.131 46.0866 201.877 46.3631 201.678C46.634 201.472 46.9165 201.39 47.2107 201.433C47.3882 201.446 47.555 201.515 47.7108 201.639C47.8611 201.755 47.981 201.897 48.0705 202.066C48.1544 202.227 48.1954 202.404 48.1935 202.598C48.1943 202.778 48.127 202.938 47.9917 203.077C47.815 203.245 47.6118 203.399 47.3822 203.542C47.1527 203.684 46.9369 203.812 46.7349 203.923L46.7225 203.932C46.6444 203.852 46.5566 203.748 46.459 203.621C46.3697 203.488 46.2775 203.351 46.1826 203.21C46.0877 203.069 45.9914 202.935 45.8938 202.808C45.7988 202.667 45.7109 202.545 45.6301 202.443ZM54.08 194.297C53.1641 194.781 52.2568 195.331 51.3581 195.948C50.4622 196.551 49.5939 197.141 48.7533 197.719C48.7589 197.727 48.7617 197.732 48.7617 197.732C48.77 197.726 48.7769 197.727 48.7825 197.736C48.8999 197.946 49.0312 198.159 49.1764 198.375C49.3216 198.59 49.4584 198.794 49.5868 198.984C49.7179 199.161 49.8323 199.313 49.9299 199.44C50.0359 199.562 50.1083 199.634 50.1472 199.656C50.2082 199.639 50.3008 199.589 50.4253 199.505C50.5497 199.421 50.6894 199.333 50.8443 199.241C50.9936 199.14 51.1486 199.048 51.309 198.964C51.464 198.872 51.6079 198.817 51.741 198.8L51.7618 198.804C52.5933 199.932 53.2896 200.904 53.8507 201.72C54.42 202.53 54.8792 203.203 55.2283 203.74C55.5801 204.262 55.8411 204.659 56.0115 204.93C56.1819 205.201 56.2824 205.351 56.313 205.378C56.4456 205.253 56.599 205.131 56.7732 205.014C56.9474 204.897 57.1217 204.78 57.2959 204.662C57.4784 204.54 57.6568 204.42 57.831 204.302C58.0079 204.171 58.1626 204.043 58.2952 203.917L58.2868 203.905L58.2785 203.893C57.6533 203 57.1132 202.224 56.6582 201.566C56.1976 200.899 55.804 200.333 55.4775 199.865C55.1453 199.39 54.8746 199.005 54.6653 198.712C54.4587 198.405 54.294 198.161 54.1711 197.978C54.0427 197.787 53.9506 197.65 53.8947 197.567C53.8416 197.471 53.8053 197.399 53.7856 197.352C53.78 197.343 53.7773 197.339 53.7773 197.339C53.78 197.325 53.7785 197.314 53.7729 197.306L53.7854 197.298L53.8103 197.281C54.189 197.002 54.4917 196.78 54.7184 196.615C54.9452 196.451 55.1485 196.332 55.3284 196.259C55.1689 195.932 54.9691 195.591 54.729 195.234C54.4972 194.872 54.2809 194.559 54.08 194.297ZM60.2753 190.597C60.1367 190.606 59.983 190.655 59.8142 190.745C59.6454 190.834 59.4767 190.942 59.3081 191.067C59.1394 191.193 58.9764 191.327 58.8189 191.469C58.6642 191.597 58.5357 191.702 58.4334 191.782C59.0562 192.762 59.7097 193.768 60.3937 194.803C61.0861 195.831 61.7466 196.857 62.3751 197.881C62.4621 198.099 62.4713 198.31 62.4029 198.513C62.3344 198.716 62.22 198.877 62.0597 198.997C61.8994 199.117 61.7097 199.184 61.4906 199.199C61.2799 199.209 61.0785 199.133 60.8864 198.973C59.3302 197.019 57.922 195.008 56.6621 192.939L56.6537 192.926C56.5069 192.977 56.3561 193.048 56.2011 193.14C56.0407 193.224 55.8816 193.319 55.724 193.425C55.5663 193.531 55.4115 193.642 55.2595 193.756C55.1157 193.865 54.9816 193.961 54.8572 194.045L54.8448 194.053L54.8656 194.057C55.6192 195.141 56.3577 196.247 57.081 197.376C57.8043 198.504 58.5345 199.616 59.2716 200.711C59.545 201.081 59.8734 201.336 60.2568 201.476C60.6428 201.602 61.041 201.648 61.4514 201.612C61.8644 201.563 62.2771 201.442 62.6895 201.249C63.1075 201.064 63.4796 200.838 63.8057 200.57C64.3639 200.11 64.6888 199.572 64.7804 198.956C64.8719 198.34 64.7667 197.736 64.4645 197.143C63.8604 195.995 63.2036 194.876 62.4944 193.786C61.7795 192.689 61.0398 191.625 60.2753 190.597ZM68.2356 188.458C67.8924 188.002 67.5138 187.672 67.0996 187.468C66.6854 187.265 66.2565 187.156 65.8126 187.141C65.3715 187.113 64.9238 187.173 64.4696 187.322C64.0099 187.463 63.5656 187.653 63.1367 187.894C62.7162 188.128 62.3166 188.403 61.938 188.718C61.5677 189.028 61.2432 189.343 60.9645 189.663C61.4529 190.335 61.9511 191.048 62.4592 191.803C62.9756 192.552 63.4851 193.3 63.9876 194.047C64.4901 194.794 64.9815 195.524 65.4617 196.237C65.9363 196.942 66.3898 197.589 66.8223 198.178C66.9745 198.1 67.1488 198.001 67.3452 197.881C67.5416 197.76 67.7352 197.636 67.926 197.508C68.1195 197.365 68.3006 197.232 68.4692 197.106C68.6406 196.967 68.7732 196.841 68.867 196.73C68.8753 196.724 68.8794 196.721 68.8794 196.721C68.8821 196.708 68.8876 196.698 68.8959 196.692L68.8875 196.68C68.4634 196.085 68.1271 195.613 67.8787 195.261C67.6386 194.905 67.4487 194.623 67.3091 194.415C67.164 194.2 67.0551 194.038 66.9825 193.93C66.9043 193.814 66.822 193.7 66.7355 193.59C67.1784 193.388 67.5571 193.109 67.8718 192.753C68.1808 192.388 68.4148 191.983 68.5737 191.539C68.7326 191.095 68.804 190.637 68.7881 190.165C68.7804 189.688 68.6675 189.234 68.4493 188.802C68.424 188.747 68.3947 188.694 68.3612 188.644C68.3221 188.586 68.283 188.528 68.2439 188.47L68.2356 188.458ZM65.7061 189.401C65.8586 189.395 65.9974 189.422 66.1225 189.482C66.2559 189.537 66.3699 189.617 66.4647 189.722C66.5678 189.821 66.6418 189.94 66.6868 190.079C66.74 190.212 66.7642 190.346 66.7593 190.482C66.7267 190.649 66.6567 190.804 66.5491 190.949C66.4443 191.08 66.3228 191.204 66.1847 191.321C66.0548 191.432 65.918 191.542 65.7743 191.651C65.6249 191.752 65.4867 191.851 65.3596 191.948L65.3222 191.974C65.197 191.877 65.0758 191.76 64.9587 191.622C64.8443 191.47 64.7272 191.313 64.6072 191.153C64.4955 190.987 64.3838 190.821 64.2722 190.655C64.1688 190.484 64.0627 190.326 63.9539 190.182C63.9566 190.168 63.9663 190.156 63.9829 190.145C64.2037 189.9 64.4677 189.71 64.775 189.575C65.0767 189.433 65.387 189.374 65.7061 189.401Z" fill="#27096D"/>
<path d="M120.351 161.145C118.484 160.358 102.486 160.703 101.326 161.491C100.662 161.941 100.978 163.298 101.933 164.704L103.618 167.187L87.8631 177.881C79.2397 183.735 72.3334 188.907 72.558 189.238C73.0635 189.983 88.9088 180.314 100.876 172.069C106.68 168.129 106.982 167.682 106.108 165.859C105.543 164.671 105.231 163.674 105.479 163.505C106.226 162.999 118.147 163.608 118.596 164.27C118.821 164.601 117.954 167.607 116.756 170.838C114.575 176.548 114.383 176.8 112.845 175.426C111.251 173.97 111.168 174.027 62.7145 206.677C24.4598 232.405 14.2636 239.689 14.5765 240.685C14.7503 241.655 24.786 235.205 62.5967 209.537L110.357 177.115L112.042 179.597C112.997 181.004 114.142 181.798 114.557 181.516C116.381 180.278 122.811 163.343 122.025 162.184C121.8 161.853 121.019 161.417 120.351 161.145Z" fill="#27096D"/>
</svg>
